<?xml version="1.0" encoding="UTF-8" standalone="no"?>
<!-- Created with Inkscape (http://www.inkscape.org/) -->

<svg
   width="400"
   height="400"
   viewBox="0 0 105.83333 105.83333"
   version="1.1"
   id="svg1"
   xml:space="preserve"
   inkscape:version="1.4 (e7c3feb100, 2024-10-09)"
   sodipodi:docname="frop.svg"
   xmlns:inkscape="http://www.inkscape.org/namespaces/inkscape"
   xmlns:sodipodi="http://sodipodi.sourceforge.net/DTD/sodipodi-0.dtd"
   xmlns="http://www.w3.org/2000/svg"
   xmlns:svg="http://www.w3.org/2000/svg"><sodipodi:namedview
     id="namedview1"
     pagecolor="#ffffff"
     bordercolor="#000000"
     borderopacity="0.25"
     inkscape:showpageshadow="2"
     inkscape:pageopacity="0.0"
     inkscape:pagecheckerboard="0"
     inkscape:deskcolor="#d1d1d1"
     inkscape:document-units="px"
     showgrid="false"
     inkscape:zoom="0.35355339"
     inkscape:cx="-291.32799"
     inkscape:cy="-428.50671"
     inkscape:window-width="2560"
     inkscape:window-height="1376"
     inkscape:window-x="0"
     inkscape:window-y="241"
     inkscape:window-maximized="1"
     inkscape:current-layer="layer1"><inkscape:grid
       id="grid3"
       units="px"
       originx="0"
       originy="0"
       spacingx="0.26458333"
       spacingy="0.26458333"
       empcolor="#0099e5"
       empopacity="0.30196078"
       color="#0099e5"
       opacity="0.14901961"
       empspacing="5"
       enabled="true"
       visible="false" /></sodipodi:namedview><defs
     id="defs1"><rect
       x="49.053891"
       y="71.39093"
       width="226.87424"
       height="249.64926"
       id="rect3" /></defs><g
     inkscape:label="Layer 1"
     inkscape:groupmode="layer"
     id="layer1"><path
       id="rect1"
       style="opacity:1;fill:#000000;stroke-width:0.650017;stroke-linecap:round;stroke-linejoin:round"
       d="m 13.166581,66.842295 c 0,-9.281224 8.526231,-20.711884 19.978536,-20.711884 2.855541,0 8.994326,3.659617 18.520497,13.185788 0,0 24.727741,-29.361284 39.291641,-43.925188 0,0 -0.03771,-1.200154 0.62307,-1.529778 2.250301,-1.122447 8.987485,0.149608 7.43575,2.837286 l -21.93631,30.677015 c 0,0 -15.913782,22.258284 -16.210988,23.121163 C 55.726002,85.427746 49.960445,90.235988 41.392404,91.341884 28.724975,92.97688 13.166581,71.492624 13.166581,66.842295 Z"
       sodipodi:nodetypes="ssccsccsss" /><path
       id="path1"
       style="opacity:1;fill:#ffffff;stroke-width:0.621229;stroke-linecap:round;stroke-linejoin:round"
       d="m 33.819661,66.274134 c -3.041136,3.228411 -8.718074,0.74146 -10.991661,0.855575 -3.218983,0.161566 -5.525452,1.545188 -6.952367,0.0693 -2.406234,-2.488816 -0.487061,-8.614517 4.286594,-13.682139 4.773655,-5.067621 10.594105,-7.158157 13.000341,-4.669342 1.276465,1.320272 1.33571,3.664005 0.397323,6.330317 -0.830545,2.359892 4.78177,6.295816 0.25977,11.096284 z"
       sodipodi:nodetypes="sssssss" /><ellipse
       style="opacity:1;fill:#000000;stroke-width:0.363855;stroke-linecap:round;stroke-linejoin:round"
       id="ellipse1"
       cx="55.828094"
       cy="21.937889"
       rx="2.9906912"
       ry="9.0534925"
       transform="matrix(0.6889203,0.7248371,-0.69294472,0.72099071,0,0)" /><path
       id="rect2"
       style="opacity:1;fill:#ffffff;stroke-width:0.650017;stroke-linecap:round;stroke-linejoin:round"
       d="m 68.081014,44.965201 c 0.541101,-0.336408 1.22149,1.108485 0.925261,1.672584 -2.32784,4.432832 -7.70998,12.183859 -10.498127,15.23118 -1.157944,1.265581 -4.310077,-0.536432 -3.306618,-1.679736 1.193408,-1.359723 9.140057,-12.899183 12.879484,-15.224028 z"
       sodipodi:nodetypes="sssss" /><path
       id="path2"
       style="opacity:1;fill:#ffffff;stroke-width:0.650017;stroke-linecap:round;stroke-linejoin:round"
       d="m 90.074105,21.009341 c 0.5411,-0.336408 0.625822,0.07363 0.220676,0.565381 -2.657195,3.225196 -10.203901,11.377058 -12.964171,14.526596 -1.130612,1.290056 -1.793706,0.570771 -0.790247,-0.572533 1.193409,-1.359724 9.794315,-12.194599 13.533742,-14.519444 z"
       sodipodi:nodetypes="sssss" /><path
       id="path3"
       style="opacity:1;fill:#ffffff;stroke-width:0.650017;stroke-linecap:round;stroke-linejoin:round"
       d="m 44.712558,67.777126 c 0,1.278574 -0.811165,2.063427 -1.811787,2.063427 -1.000624,0 -2.566701,-1.489436 -2.5667,-2.768011 0,-1.278572 0.811165,-1.660805 1.811788,-1.660804 1.000622,0 2.566698,1.086816 2.566699,2.365388 z"
       sodipodi:nodetypes="sssss" /><path
       style="font-weight:300;font-size:96px;font-family:'URW Bookman';-inkscape-font-specification:'URW Bookman Light';text-align:center;text-anchor:middle;white-space:pre;stroke-width:0.650016;stroke-linecap:round;stroke-linejoin:round"
       d="m 23.587228,16.803118 v 3.806497 c -4.617717,0.156004 -7.675394,2.558465 -7.675394,6.021754 0,3.026477 2.184055,4.586517 7.675394,5.366536 v 7.675392 c -2.77687,-0.187205 -4.243307,-0.936024 -4.243307,-2.184056 0,-0.218405 0.0312,-0.561611 0.0936,-0.904819 0.0936,-0.37441 0.124803,-0.748823 0.124803,-1.02963 0,-1.123225 -0.78002,-1.934449 -1.872047,-1.934449 -1.310433,0 -2.215256,0.936024 -2.215256,2.308862 0,2.808068 2.714468,4.492911 8.112205,5.023324 v 3.962504 h 1.15443 v -3.962504 c 5.11693,-0.468008 8.174607,-2.870469 8.174607,-6.33376 0,-2.121651 -1.029626,-3.556887 -3.057677,-4.399309 -1.029626,-0.436811 -2.464863,-0.748819 -5.11693,-1.154429 v -7.176184 c 2.37126,0.312008 3.400886,1.060827 3.400886,2.464864 v 0.249607 c -0.0936,0.624015 -0.0936,0.655216 -0.0936,0.904823 0,1.029626 0.686417,1.716043 1.684842,1.716043 1.15443,0 1.93445,-0.78002 1.93445,-1.903248 0,-1.154429 -0.717619,-2.27766 -2.059253,-3.213683 -1.18563,-0.842422 -2.620866,-1.310434 -4.867323,-1.497638 v -3.806497 z m 0,5.085729 v 6.895377 c -1.716043,-0.249607 -2.37126,-0.436811 -3.244882,-0.967225 -0.904823,-0.530413 -1.466437,-1.497638 -1.466437,-2.558465 0,-1.092027 0.624016,-2.090454 1.560039,-2.620868 0.78002,-0.436811 1.996851,-0.748819 2.839273,-0.748819 z m 1.15443,10.327464 c 1.404035,0.249606 2.215256,0.436811 2.870473,0.686417 1.560039,0.592815 2.340059,1.528839 2.340059,2.808072 0,2.277654 -2.090453,3.868898 -5.210532,3.962497 z"
       id="text3"
       aria-label="$" /></g></svg>
