<?xml version="1.0" encoding="UTF-8" standalone="no"?>
<!-- Created with Inkscape (http://www.inkscape.org/) -->

<svg
   width="16"
   height="16"
   viewBox="0 0 4.2333332 4.2333333"
   version="1.1"
   id="svg1"
   xml:space="preserve"
   inkscape:version="1.4 (e7c3feb100, 2024-10-09)"
   sodipodi:docname="favicon.svg"
   xmlns:inkscape="http://www.inkscape.org/namespaces/inkscape"
   xmlns:sodipodi="http://sodipodi.sourceforge.net/DTD/sodipodi-0.dtd"
   xmlns="http://www.w3.org/2000/svg"
   xmlns:svg="http://www.w3.org/2000/svg"><sodipodi:namedview
     id="namedview1"
     pagecolor="#ffffff"
     bordercolor="#000000"
     borderopacity="0.25"
     inkscape:showpageshadow="2"
     inkscape:pageopacity="0.0"
     inkscape:pagecheckerboard="0"
     inkscape:deskcolor="#d1d1d1"
     inkscape:document-units="px"
     showgrid="true"
     inkscape:zoom="22.627417"
     inkscape:cx="-1.5909903"
     inkscape:cy="8.2864076"
     inkscape:window-width="2560"
     inkscape:window-height="1376"
     inkscape:window-x="0"
     inkscape:window-y="241"
     inkscape:window-maximized="1"
     inkscape:current-layer="layer1"><inkscape:grid
       id="grid1"
       units="px"
       originx="0"
       originy="0"
       spacingx="0.26458332"
       spacingy="0.26458333"
       empcolor="#0099e5"
       empopacity="0.30196078"
       color="#0099e5"
       opacity="0.14901961"
       empspacing="5"
       enabled="true"
       visible="true" /></sodipodi:namedview><defs
     id="defs1" /><g
     inkscape:label="Layer 1"
     inkscape:groupmode="layer"
     id="layer1"><path
       id="rect9"
       style="fill:#f9f9f9;stroke-width:0.529"
       d="M 0,0 H 4.2333331 V 4.2333331 H 0 Z" /><path
       id="rect1"
       style="fill:#000000;stroke-width:0.529"
       d="M 1.3221109,1.3919067e-7 H 2.9104166 L 3.1749999,0 v 0.26458332 h 0.2645833 l 0,0.26458331 h 0.2645833 l 0,1.85208317 H 3.4395832 V 1.8520832 H 3.1749999 V 2.1166665 H 2.9104165 V 1.8520832 H 2.6458332 l 0,-0.2645833 h 0.79375 l 0,-0.79374995 H 3.1749999 V 0.52916663 H 2.9104165 l 10e-8,0.26458332 H 1.3221109 L 1.3229166,1.3229166 H 1.0583333 l 0,0.2645833 h 0.79375 v 0.2645833 h 0.2645833 v 0.79375 H 2.6458332 V 2.9104165 H 1.8520833 l 0,-0.2645833 H 1.5874999 V 2.3812498 H 1.8520833 V 2.1166665 H 1.3229166 l 0,-0.2645833 H 1.0583333 V 2.3812498 H 0.79374997 V 0.52916663 H 1.0583333 l 0,-0.26458331 h 0.2645833 z"
       sodipodi:nodetypes="cccccccccccccccccccccccccccccccccccccccccccccccc" /><path
       id="rect2"
       style="fill:#000000;stroke-width:0.529"
       d="m 1.0583333,2.3812499 h 0.2645833 l 0,0.2645833 h 0.2645833 l 0,0.2645833 H 1.8520833 V 3.1749998 H 2.6458332 V 3.4395831 H 1.8520833 V 3.7041664 H 1.3229166 v 0.5291667 l -0.7929485,2e-7 -8.0145e-4,-0.7937502 h 0.26458332 l 0,0.2645833 H 1.0583333 V 3.4395831 h 0.2645833 l 0,-0.5291666 H 1.0583333 Z"
       sodipodi:nodetypes="ccccccccccccccccccccccc" /><path
       id="rect3"
       style="fill:#000000;stroke-width:0.529"
       d="M 1.8520833,3.7041664 H 2.9104166 V 3.9687497 H 1.8520833 Z" /><path
       id="rect4"
       style="fill:#000000;stroke-width:0.529"
       d="M 2.9104166,3.1749997 H 3.1749999 V 3.7041664 H 2.9104166 Z" /><path
       id="rect5"
       style="fill:#000000;stroke-width:0.529"
       d="M 2.6458333,2.9104164 H 2.9104166 V 3.1749997 H 2.6458333 Z" /><path
       id="rect6"
       style="fill:#000000;stroke-width:0.529"
       d="M 2.6458333,2.3812499 H 2.9104166 V 2.6458332 H 2.6458333 Z" /><path
       id="rect7"
       style="fill:#000000;stroke-width:0.529"
       d="M 2.3812499,1.8520832 H 2.6458332 V 2.1166665 H 2.3812499 Z" /><path
       id="rect8"
       style="fill:#000000;stroke-width:0.529"
       d="M 3.175,2.3812499 H 3.4395833 V 3.1749998 H 3.175 l -10e-8,-0.2645833 -0.2645833,-1e-7 V 2.6458332 h 0.2645833 z"
       sodipodi:nodetypes="ccccccccc" /></g></svg>
